<?xml version="1.0" encoding="utf-8"?>
<!-- Generator: Adobe Illustrator 24.0.2, SVG Export Plug-In . SVG Version: 6.00 Build 0)  -->
<svg version="1.1" id="Layer_1" xmlns="http://www.w3.org/2000/svg" xmlns:xlink="http://www.w3.org/1999/xlink" x="0px" y="0px"
	 viewBox="0 0 340.5 58.44" style="enable-background:new 0 0 340.5 58.44;" xml:space="preserve">
<style type="text/css">
	.st0{fill:#992C56;}
</style>
<g>
	<g>
		<path id="XMLID_139_" class="st0" d="M40.14,17.22c-1.04-0.5-2.34-0.79-3.91-0.85c-0.61,0-1.28,0.06-2.01,0.19
			c-2.24,0.48-4.1,1.69-5.57,3.62c-1.89,2.73-2.82,6.27-2.8,10.63c-0.02,4.36,0.91,7.9,2.8,10.63c1.47,1.93,3.32,3.13,5.57,3.62
			c0.73,0.13,1.4,0.19,2.01,0.19c5.41-0.15,9.25-2.58,11.54-7.29h3.14c-2.58,7.02-8,10.63-16.26,10.82
			c-6.48,0-11.35-1.71-14.62-5.13s-4.91-7.69-4.91-12.83s1.64-9.41,4.91-12.83s8.14-5.12,14.62-5.12
			c6.98,0.15,11.85,2.37,14.62,6.67c0.52,0.84,0.79,1.78,0.79,2.83c0,1.45-0.51,2.68-1.54,3.71c-1.03,1.03-2.26,1.54-3.71,1.54
			s-2.68-0.51-3.71-1.54s-1.54-2.26-1.54-3.71c-0.02-1.47,0.49-2.71,1.54-3.74C41.49,18.18,41.17,17.72,40.14,17.22z"/>
		<path id="XMLID_136_" class="st0" d="M114.12,17.97c3.26,3.42,4.9,7.69,4.92,12.83c0,4.93-1.64,9.15-4.91,12.67
			c-3.27,3.52-7.71,5.28-13.33,5.28c-5.64,0-10.09-1.71-13.36-5.13c-3.27-3.42-4.91-7.69-4.91-12.83
			c-0.02-5.14,1.61-9.41,4.89-12.83s7.74-5.12,13.38-5.12C106.43,12.85,110.86,14.56,114.12,17.97z M100.78,16.02
			c-2.29,0-4.11,1.37-5.49,4.1c-1.37,2.74-2.05,6.28-2.03,10.64c-0.02,4.38,0.65,7.94,2.01,10.68s3.2,4.1,5.5,4.1
			c2.31,0,4.14-1.37,5.5-4.1c1.36-2.74,2.04-6.29,2.04-10.68c0-4.36-0.68-7.91-2.04-10.64C104.92,17.39,103.08,16.02,100.78,16.02z"
			/>
		<path id="XMLID_134_" class="st0" d="M141.17,13.68c1.37,0.58,2.52,1.39,3.44,2.44l0.69-2.67h3.14v9.59h-3.11
			c-0.8-2.05-1.88-3.62-3.24-4.7c-1.36-1.08-3.01-1.66-4.94-1.75c-3.12,0.11-4.74,1.67-4.84,4.69c0,2.7,2.15,4.51,6.45,5.41
			c7.38,1.55,11.07,5.37,11.07,11.45c-0.13,3.4-1.51,6.04-4.17,7.92s-5.49,2.83-8.51,2.83c-2.31-0.02-4.38-0.39-6.21-1.1
			s-3.12-1.57-3.85-2.58l-0.69,3.08h-3.08V38h3.05c0.63,2.31,1.8,4,3.52,5.08s3.8,1.66,6.26,1.75c3.29-0.4,4.99-2.14,5.09-5.22
			c0-2.93-2.33-4.88-6.98-5.85c-7.02-1.76-10.53-5.25-10.53-10.47c0.1-3.4,1.33-6,3.66-7.81c2.34-1.81,5.27-2.72,8.79-2.72
			C138.14,12.79,139.8,13.1,141.17,13.68z"/>
		<path id="XMLID_132_" class="st0" d="M171.42,13.68c1.37,0.58,2.52,1.39,3.44,2.44l0.69-2.67h3.14v9.59h-3.11
			c-0.8-2.05-1.88-3.62-3.24-4.7c-1.36-1.08-3.01-1.66-4.94-1.75c-3.12,0.11-4.74,1.67-4.84,4.69c0,2.7,2.15,4.51,6.45,5.41
			c7.38,1.55,11.07,5.37,11.07,11.45c-0.13,3.4-1.51,6.04-4.17,7.92c-2.65,1.89-5.49,2.83-8.51,2.83c-2.31-0.02-4.38-0.39-6.21-1.1
			s-3.12-1.57-3.85-2.58l-0.69,3.08h-3.08V38h3.05c0.63,2.31,1.8,4,3.52,5.08s3.8,1.66,6.26,1.75c3.29-0.4,4.99-2.14,5.09-5.22
			c0-2.93-2.33-4.88-6.98-5.85c-7.02-1.76-10.53-5.25-10.53-10.47c0.1-3.4,1.33-6,3.66-7.81c2.34-1.81,5.27-2.72,8.79-2.72
			C168.39,12.79,170.05,13.1,171.42,13.68z"/>
		<path id="XMLID_129_" class="st0" d="M214.69,17.97c3.26,3.42,4.9,7.69,4.92,12.83c0,4.93-1.64,9.15-4.91,12.67
			c-3.27,3.52-7.71,5.28-13.33,5.28c-5.64,0-10.09-1.71-13.36-5.13s-4.9-7.69-4.9-12.83c-0.02-5.14,1.61-9.41,4.89-12.83
			s7.74-5.12,13.38-5.12C206.99,12.85,211.43,14.56,214.69,17.97z M201.34,16.02c-2.29,0-4.11,1.37-5.49,4.1
			c-1.37,2.74-2.05,6.28-2.03,10.64c-0.02,4.38,0.65,7.94,2.01,10.68s3.2,4.1,5.5,4.1c2.31,0,4.14-1.37,5.5-4.1
			c1.36-2.74,2.04-6.29,2.04-10.68c0-4.36-0.68-7.91-2.04-10.64C205.48,17.39,203.65,16.02,201.34,16.02z"/>
		<path id="XMLID_127_" class="st0" d="M240.83,38.61l9.15-22.73h-4.4v-3.27h12.26v3.27h-4.4l-13.39,32.7h-4.65L222,15.88h-4.4
			v-3.27h19.18v3.27h-4.4L240.83,38.61z"/>
		<path id="XMLID_124_" class="st0" d="M276.99,48.76c-6.48,0-11.35-1.71-14.62-5.13s-4.9-7.69-4.9-12.83
			c-0.02-5.14,1.61-9.41,4.89-12.83c3.28-3.42,7.74-5.12,13.38-5.12c5.62,0,10.06,1.71,13.33,5.12c3.16,3.33,4.59,7.47,4.28,12.42
			H268.2v0.38c-0.02,4.38,0.91,7.93,2.8,10.66c1.47,1.93,3.32,3.13,5.57,3.62c0.73,0.13,1.4,0.19,2.01,0.19
			c5.41-0.15,9.25-2.58,11.54-7.29h3.14C290.67,44.96,285.25,48.57,276.99,48.76z M283.09,27.25c-0.29-2.79-0.92-5.17-1.89-7.14
			c-1.36-2.72-3.2-4.09-5.5-4.09c-2.29,0-4.11,1.36-5.47,4.09c-0.99,1.97-1.61,4.35-1.89,7.14H283.09z"/>
		<path id="XMLID_123_" class="st0" d="M80.66,14.09c-1.05-0.85-2.05-1.33-3.02-1.44c-4.26-0.26-7.92,1.4-11.01,4.98v-4.85H51.85
			v3.89h2.38l0,0h0.25c0.77,0,1.78,0.18,1.78,2.13v-2.13l0,0v2.17v24.95c-0.11,0.47-0.8,1.36-4.4,1.6v3.19h19.18v-3.19
			c-3.6-0.24-4.29-1.12-4.4-1.6V22.71c0.57-1.4,1.57-2.58,3.02-3.54c1.45-0.51,2.21-0.49,2.3,0.06c0.17,1.49,0.85,2.67,2.04,3.54
			c1.15,0.91,2.44,1.29,3.85,1.12c1.41-0.17,2.56-0.87,3.44-2.11c0.88-1.15,1.28-2.44,1.21-3.88C82.42,16.47,81.81,15.2,80.66,14.09
			z"/>
		<path id="XMLID_122_" class="st0" d="M323.53,14.09c-1.05-0.85-2.05-1.33-3.02-1.44c-4.26-0.26-7.92,1.4-11.01,4.98v-4.85h-14.78
			v3.89h2.38l0,0h0.25c0.77,0,1.78,0.18,1.78,2.13v-2.13l0,0v2.17v24.95c-0.11,0.47-0.8,1.36-4.4,1.6v3.19h19.18v-3.19
			c-3.6-0.24-4.29-1.12-4.4-1.6V22.71c0.57-1.4,1.57-2.58,3.02-3.54c1.45-0.51,2.21-0.49,2.3,0.06c0.17,1.49,0.85,2.67,2.04,3.54
			c1.15,0.91,2.44,1.29,3.85,1.12s2.56-0.87,3.44-2.11c0.88-1.15,1.28-2.44,1.21-3.88C325.3,16.47,324.68,15.2,323.53,14.09z"/>
	</g>
</g>
</svg>
