<svg xmlns="http://www.w3.org/2000/svg" width="105.015" height="12.28" viewBox="0 0 105.015 12.28"><defs><style>.a{fill:#fff;}</style></defs><g transform="translate(-15.12 -16.28)"><path class="a" d="M23.589,18.012a3.343,3.343,0,0,0-1.323-.288,3.891,3.891,0,0,0-.68.064A3.148,3.148,0,0,0,19.7,19.014a6.139,6.139,0,0,0-.948,3.6,6.139,6.139,0,0,0,.948,3.6,3.153,3.153,0,0,0,1.885,1.225,3.891,3.891,0,0,0,.68.064,4.157,4.157,0,0,0,3.906-2.467h1.063q-1.31,3.564-5.5,3.662a6.537,6.537,0,0,1-4.949-1.736,6.033,6.033,0,0,1-1.662-4.343,6.033,6.033,0,0,1,1.662-4.343A6.536,6.536,0,0,1,21.73,16.54q3.544.076,4.949,2.258a1.783,1.783,0,0,1,.267.958,1.777,1.777,0,0,1-3.554,0,1.669,1.669,0,0,1,.521-1.266C24.046,18.337,23.937,18.182,23.589,18.012Z" transform="translate(0 -0.172)"/><path class="a" d="M93.222,18.246a6.079,6.079,0,0,1,1.665,4.343,6.08,6.08,0,0,1-1.662,4.289,5.856,5.856,0,0,1-4.512,1.787,5.959,5.959,0,0,1-4.522-1.736,6.033,6.033,0,0,1-1.662-4.343,6.338,6.338,0,0,1,10.692-4.339Zm-4.515-.66a2.1,2.1,0,0,0-1.858,1.388,7.972,7.972,0,0,0-.687,3.6,8.066,8.066,0,0,0,.68,3.615,1.943,1.943,0,0,0,3.723,0,8.141,8.141,0,0,0,.69-3.615,8.1,8.1,0,0,0-.69-3.6A2.083,2.083,0,0,0,88.707,17.586Z" transform="translate(-44.593 -0.152)"/><path class="a" d="M129.362,16.741a3.158,3.158,0,0,1,1.164.826l.234-.9h1.063V19.91H130.77a3.685,3.685,0,0,0-1.1-1.591A2.827,2.827,0,0,0,128,17.726a1.488,1.488,0,0,0-1.638,1.587c0,.914.728,1.527,2.183,1.831q3.747.787,3.747,3.876a3.254,3.254,0,0,1-1.411,2.681,4.9,4.9,0,0,1-2.88.958,5.919,5.919,0,0,1-2.1-.372,2.828,2.828,0,0,1-1.3-.873l-.234,1.043H123.32V24.973h1.032a2.8,2.8,0,0,0,1.191,1.719,4.2,4.2,0,0,0,2.119.592,1.706,1.706,0,0,0,1.723-1.767q0-1.488-2.363-1.98-3.564-.894-3.564-3.544a3.281,3.281,0,0,1,1.239-2.644,4.719,4.719,0,0,1,2.975-.921A4.5,4.5,0,0,1,129.362,16.741Z" transform="translate(-71.577 -0.099)"/><path class="a" d="M159.612,16.741a3.158,3.158,0,0,1,1.164.826l.234-.9h1.063V19.91H161.02a3.685,3.685,0,0,0-1.1-1.591,2.827,2.827,0,0,0-1.672-.592,1.488,1.488,0,0,0-1.638,1.587c0,.914.728,1.527,2.183,1.831q3.747.787,3.747,3.876a3.254,3.254,0,0,1-1.411,2.681,4.87,4.87,0,0,1-2.88.958,5.919,5.919,0,0,1-2.1-.372,2.828,2.828,0,0,1-1.3-.873l-.234,1.043H153.57V24.973H154.6a2.8,2.8,0,0,0,1.191,1.719,4.2,4.2,0,0,0,2.119.592,1.706,1.706,0,0,0,1.723-1.767q0-1.488-2.363-1.98-3.564-.894-3.564-3.544a3.281,3.281,0,0,1,1.239-2.644,4.719,4.719,0,0,1,2.975-.921A4.5,4.5,0,0,1,159.612,16.741Z" transform="translate(-91.588 -0.099)"/><path class="a" d="M193.8,18.246a6.079,6.079,0,0,1,1.665,4.343,6.08,6.08,0,0,1-1.662,4.289,5.856,5.856,0,0,1-4.512,1.787,5.959,5.959,0,0,1-4.522-1.736,6.031,6.031,0,0,1-1.659-4.343A6.335,6.335,0,0,1,193.8,18.246Zm-4.519-.66a2.1,2.1,0,0,0-1.858,1.388,7.972,7.972,0,0,0-.687,3.6,8.066,8.066,0,0,0,.68,3.615,1.943,1.943,0,0,0,3.723,0,8.141,8.141,0,0,0,.69-3.615,8.1,8.1,0,0,0-.69-3.6A2.079,2.079,0,0,0,189.28,17.586Z" transform="translate(-111.129 -0.152)"/><path class="a" d="M225.463,25.08l3.1-7.694h-1.489V16.28h4.15v1.107h-1.489L225.2,28.455h-1.574l-4.536-11.068H217.6V16.28h6.492v1.107H222.6Z" transform="translate(-133.945)"/><path class="a" d="M264.077,28.675a6.537,6.537,0,0,1-4.949-1.736A6.031,6.031,0,0,1,257.47,22.6a6.343,6.343,0,0,1,10.7-4.343,5.352,5.352,0,0,1,1.449,4.2H261.1v.129a6.158,6.158,0,0,0,.948,3.608,3.153,3.153,0,0,0,1.885,1.225,3.891,3.891,0,0,0,.68.064,4.157,4.157,0,0,0,3.906-2.467h1.063Q268.269,28.575,264.077,28.675Zm2.065-7.281a7.124,7.124,0,0,0-.64-2.417,1.937,1.937,0,0,0-3.713,0,6.9,6.9,0,0,0-.64,2.417Z" transform="translate(-160.32 -0.159)"/><path class="a" d="M61.6,16.79a2.019,2.019,0,0,0-1.022-.487,4.387,4.387,0,0,0-3.727,1.686V16.347h-5v1.317h.89c.261,0,.6.061.6.721v-.721h0v9.179c-.037.159-.271.46-1.489.542v1.08h6.492v-1.08c-1.219-.081-1.452-.379-1.489-.542V19.708a2.615,2.615,0,0,1,1.022-1.2c.491-.173.748-.166.778.02a1.654,1.654,0,0,0,.69,1.2,1.7,1.7,0,0,0,1.3.379,1.62,1.62,0,0,0,1.164-.714,1.939,1.939,0,0,0,.41-1.313A1.9,1.9,0,0,0,61.6,16.79Z" transform="translate(-24.298 -0.009)"/><path class="a" d="M304.472,16.79a2.019,2.019,0,0,0-1.022-.487,4.387,4.387,0,0,0-3.727,1.686V16.347h-5v1.317h.89c.261,0,.6.061.6.721v-.721h0v9.179c-.037.159-.271.46-1.489.542v1.08h6.492v-1.08c-1.219-.081-1.452-.379-1.489-.542V19.708a2.615,2.615,0,0,1,1.022-1.2c.491-.173.748-.166.779.02a1.654,1.654,0,0,0,.69,1.2,1.7,1.7,0,0,0,1.3.379,1.62,1.62,0,0,0,1.164-.714,1.939,1.939,0,0,0,.41-1.313A1.886,1.886,0,0,0,304.472,16.79Z" transform="translate(-184.962 -0.009)"/></g></svg>