<?xml version="1.0" encoding="utf-8"?>
<!-- Generator: Adobe Illustrator 24.0.3, SVG Export Plug-In . SVG Version: 6.00 Build 0)  -->
<svg version="1.1" id="Layer_1" xmlns="http://www.w3.org/2000/svg" xmlns:xlink="http://www.w3.org/1999/xlink" x="0px" y="0px"
	 viewBox="0 0 107.6 16.9" style="enable-background:new 0 0 107.6 16.9;" xml:space="preserve">
<style type="text/css">
	.st0{fill:#FFFFFF;}
	.st1{fill:#FCB940;}
</style>
<g>
	<g>
		<g>
			<path class="st0" d="M45.4,3.7h0.7v7.3h-0.7V3.7z"/>
		</g>
	</g>
	<g>
		<g>
			<g>
				<path class="st1" d="M50.5,4v1.8h0c0.2-0.4,0.5-0.5,1-0.5c0.3,0,0.6,0.1,0.8,0.3c0.2,0.2,0.3,0.5,0.3,0.9v3h-1.1V6.6
					c0-0.2,0-0.4-0.1-0.4c-0.1-0.1-0.2-0.1-0.3-0.1c-0.4,0-0.6,0.2-0.6,0.7v2.7h-1.1V4H50.5z"/>
				<path class="st1" d="M55.4,9c-0.1,0.2-0.3,0.3-0.4,0.4c-0.2,0.1-0.4,0.1-0.6,0.1c-0.3,0-0.6-0.1-0.8-0.3
					c-0.2-0.2-0.3-0.5-0.3-0.9v-3h1.1v2.8c0,0.2,0,0.4,0.1,0.4c0.1,0.1,0.2,0.1,0.3,0.1c0.4,0,0.6-0.2,0.6-0.7V5.4h1.1v4.1h-1
					L55.4,9L55.4,9z"/>
				<path class="st1" d="M58.1,5.4v0.4h0c0.1-0.2,0.3-0.3,0.4-0.4c0.2-0.1,0.4-0.1,0.6-0.1c0.2,0,0.4,0.1,0.6,0.2
					c0.2,0.1,0.3,0.3,0.3,0.5h0c0.1-0.2,0.2-0.4,0.4-0.5c0.2-0.1,0.4-0.2,0.6-0.2c0.4,0,0.6,0.1,0.8,0.3c0.2,0.2,0.2,0.5,0.2,0.9v3
					h-1.1V6.6c0-0.2,0-0.3-0.1-0.4c-0.1-0.1-0.2-0.1-0.3-0.1c-0.2,0-0.3,0.1-0.4,0.2c-0.1,0.1-0.1,0.3-0.1,0.5v2.7h-1.1V6.6
					c0-0.2,0-0.3-0.1-0.4c-0.1-0.1-0.2-0.1-0.3-0.1c-0.2,0-0.3,0.1-0.4,0.2c-0.1,0.1-0.1,0.3-0.1,0.5v2.7h-1.1V5.4H58.1z"/>
				<path class="st1" d="M62.9,6.5c0-0.2,0-0.4,0.1-0.6c0.1-0.2,0.2-0.3,0.3-0.4c0.1-0.1,0.3-0.2,0.5-0.2c0.2,0,0.4-0.1,0.6-0.1
					c0.3,0,0.6,0,0.8,0.1c0.2,0.1,0.3,0.1,0.4,0.3c0.1,0.1,0.2,0.2,0.2,0.4c0,0.2,0.1,0.3,0.1,0.5v2.2c0,0.2,0,0.3,0,0.4
					s0.1,0.2,0.1,0.3h-1c0-0.1-0.1-0.1-0.1-0.2c0-0.1,0-0.1,0-0.2h0c-0.1,0.2-0.3,0.4-0.4,0.4c-0.2,0.1-0.4,0.1-0.6,0.1
					c-0.2,0-0.3,0-0.5-0.1c-0.1-0.1-0.2-0.2-0.3-0.3c-0.1-0.1-0.1-0.2-0.2-0.4c0-0.1-0.1-0.3-0.1-0.4c0-0.2,0-0.4,0.1-0.5
					c0-0.1,0.1-0.3,0.2-0.4c0.1-0.1,0.2-0.2,0.3-0.2c0.1-0.1,0.3-0.1,0.5-0.2l0.6-0.2c0.2,0,0.3-0.1,0.3-0.2
					c0.1-0.1,0.1-0.2,0.1-0.3c0-0.2,0-0.3-0.1-0.4C64.6,6,64.5,6,64.3,6c-0.2,0-0.3,0-0.4,0.1c-0.1,0.1-0.1,0.2-0.1,0.4v0.1
					L62.9,6.5L62.9,6.5z M64.5,7.5c-0.1,0-0.2,0.1-0.2,0.1c-0.2,0-0.4,0.1-0.5,0.2s-0.1,0.3-0.1,0.4c0,0.2,0,0.3,0.1,0.4
					c0.1,0.1,0.2,0.2,0.3,0.2c0.1,0,0.1,0,0.2,0c0.1,0,0.1-0.1,0.2-0.1c0.1-0.1,0.1-0.1,0.2-0.2c0-0.1,0.1-0.2,0.1-0.3V7.4
					C64.7,7.5,64.6,7.5,64.5,7.5z"/>
				<path class="st1" d="M67.5,5.4v0.5h0c0.1-0.2,0.3-0.4,0.4-0.4c0.2-0.1,0.4-0.1,0.6-0.1c0.3,0,0.6,0.1,0.8,0.3
					c0.2,0.2,0.3,0.5,0.3,0.9v3h-1.1V6.6c0-0.2,0-0.4-0.1-0.4c-0.1-0.1-0.2-0.1-0.3-0.1c-0.4,0-0.6,0.2-0.6,0.7v2.7h-1.1V5.4H67.5z"
					/>
			</g>
			<g>
				<path class="st0" d="M71.4,10.2L71.4,10.2c-0.1,0-0.1-0.1-0.2-0.1c0-0.1,0-0.1,0-0.2c0-0.4,0.1-0.7,0.1-1.1
					c0.1-0.4,0.1-0.7,0.2-1C71.7,7.4,71.8,7,72,6.7c0.1-0.4,0.3-0.8,0.4-1.1c0.1-0.2,0.1-0.3,0.1-0.4c0-0.1,0.1-0.3,0.1-0.4
					c-0.1,0-0.3,0-0.4,0.1c-0.1,0-0.3,0.1-0.4,0.2c-0.1,0-0.1,0-0.2,0.1c-0.1,0-0.1,0-0.2,0.1c0,0-0.1,0-0.1,0.1
					c0,0-0.1,0.1-0.1,0.1c-0.1,0-0.1,0-0.1,0c0,0-0.1,0-0.1,0c-0.1,0-0.1-0.1-0.1-0.1c0-0.1,0-0.1,0-0.2c0-0.1,0-0.1,0.1-0.2
					c0-0.1,0-0.1,0.1-0.1l0.2-0.1c0.1,0,0.2,0,0.3-0.1c0.1,0,0.3-0.1,0.4-0.1s0.3-0.1,0.4-0.1c0.1,0,0.2,0,0.2,0c0.1,0,0.1,0,0.1,0
					c0,0,0.1,0,0.1,0c0.1-0.3,0.2-0.6,0.4-0.9c0.1-0.3,0.3-0.6,0.4-0.9c0.1-0.1,0.1-0.3,0.2-0.4c0.1-0.1,0.1-0.3,0.2-0.4
					C74,1.4,74,1.3,74,1.3c0,0,0-0.1,0-0.1c0,0,0-0.1,0-0.1c0-0.1,0-0.1,0.1-0.1c0,0,0.1-0.1,0.1-0.2c0-0.1,0-0.1,0.1-0.2
					s0-0.1,0.1-0.1c0,0,0.1-0.1,0.2-0.1c0.1,0,0.2-0.1,0.3-0.1c0.1,0,0.2,0,0.3,0.1c0.1,0,0.2,0.1,0.2,0.2c0,0,0,0.1,0,0.1
					c0,0-0.1,0.1-0.1,0.1c0,0,0,0.1,0,0.1c0,0,0,0.1,0,0.1c-0.1,0.2-0.2,0.5-0.3,0.7c-0.1,0.3-0.2,0.5-0.3,0.7
					c-0.1,0.2-0.2,0.4-0.3,0.7s-0.2,0.4-0.3,0.7h0c0.1,0,0.2-0.1,0.4-0.1c0.1,0,0.2,0,0.3-0.1c0.2,0,0.3,0,0.3,0c0.1,0,0.1,0,0.2,0
					s0.1,0,0.2,0c0.1,0,0.2,0,0.4,0c0.1,0,0.2,0,0.3,0c0.1,0,0.2,0,0.4,0.1c0,0,0,0,0,0.1c0,0,0,0,0,0.1c0,0,0,0,0,0c0,0,0,0,0,0
					c0,0,0,0.1,0,0.1c0,0,0,0.1,0,0.1c-0.1,0-0.1,0-0.1,0c0,0-0.1,0-0.1,0l0,0c-0.4,0.1-0.8,0.1-1.2,0.2c-0.4,0.1-0.8,0.1-1.2,0.2
					l0,0.2c-0.2,0.5-0.3,1.1-0.5,1.6c-0.2,0.5-0.3,1.1-0.5,1.6c0,0.1-0.1,0.2-0.1,0.2c0,0.1-0.1,0.2-0.1,0.3
					c-0.1,0.1-0.1,0.2-0.1,0.3c0,0.1,0,0.2-0.1,0.3c0,0,0,0-0.1,0.1c0,0,0,0.1,0,0.1c0,0.1,0,0.1,0,0.2c0,0.1,0,0.1,0,0.2
					c0,0.1,0,0.1,0,0.2c0,0.1,0,0.1,0,0.1l-0.1,0.2c0,0.1,0,0.1,0,0.2c0,0.1,0,0.1,0,0.2c-0.1,0-0.1,0-0.1,0.1c0,0,0,0-0.1,0
					c0,0-0.1,0-0.1,0C71.5,10.2,71.5,10.2,71.4,10.2z"/>
				<path class="st0" d="M77.7,6C77.7,6,77.7,6,77.7,6c0,0.1,0,0.1-0.1,0.1c0,0,0,0,0,0c0,0.1-0.1,0.1-0.1,0.1c-0.1,0-0.1,0-0.1,0.1
					c-0.2,0.1-0.4,0.1-0.6,0.2c-0.2,0.1-0.4,0.2-0.6,0.3c-0.2,0.1-0.4,0.2-0.6,0.3c-0.2,0.1-0.3,0.2-0.4,0.3C75,7.6,75,7.7,74.9,7.8
					c-0.1,0.1-0.2,0.2-0.2,0.3c0,0.1-0.1,0.2-0.1,0.3c0,0.1-0.1,0.2-0.1,0.4c0,0.1-0.1,0.2-0.1,0.3s-0.1,0.1-0.1,0.2
					c0,0-0.1,0.1-0.1,0.2C74.1,9.4,74,9.5,74,9.5c-0.2,0.1-0.3,0.1-0.4,0c-0.1-0.1-0.1-0.2-0.1-0.4c0-0.1,0.1-0.3,0.1-0.5
					c0.1-0.2,0.1-0.4,0.1-0.5v0c0,0,0-0.1,0-0.1c0.1-0.1,0.1-0.3,0.2-0.4s0.1-0.3,0.2-0.4c0,0,0,0,0,0c0,0,0,0,0,0
					c0.1-0.2,0.1-0.4,0.2-0.6c0.1-0.2,0.1-0.4,0.2-0.6c0,0,0-0.1,0-0.1c0,0,0,0,0.1-0.1c0.1,0,0.1,0,0.1-0.1c0,0,0.1,0,0.1,0
					c0,0,0,0,0.1,0c0,0,0,0,0.1,0c0,0,0,0,0.1,0c0.1,0,0.2,0,0.2,0.1c0.1,0.2,0.1,0.3,0,0.5c0,0.1,0,0.2-0.1,0.2
					c0,0.1,0,0.2-0.1,0.2c0.4-0.3,0.7-0.4,1-0.5C76.6,6,76.9,6,77.2,6c0.1,0,0.2,0,0.3,0C77.6,5.9,77.7,5.9,77.7,6z"/>
				<path class="st0" d="M81.9,7.8c0.3-0.1,0.5-0.1,0.5-0.1c0.1,0,0,0.1-0.1,0.2c0,0-0.1,0.1-0.1,0.1c0,0-0.1,0.1-0.1,0.1
					c-0.2,0.1-0.3,0.2-0.3,0.2c-0.1,0-0.1,0-0.1,0c-0.2,0.1-0.3,0.2-0.4,0.3c-0.1,0.1-0.3,0.2-0.4,0.3s-0.3,0.2-0.4,0.2
					c-0.2,0.1-0.3,0.1-0.6,0c0,0,0,0-0.1,0c0,0-0.1,0-0.1,0c-0.1,0-0.2-0.1-0.2-0.1c0-0.1-0.1-0.1-0.1-0.2c0-0.1,0-0.2,0-0.3
					c0-0.1,0-0.2,0-0.4c0,0,0,0,0,0c0,0,0,0,0,0c0,0,0,0-0.1,0c0,0,0,0-0.1,0.1c-0.1,0.1-0.1,0.1-0.1,0.2c0,0.1-0.1,0.1-0.2,0.1
					c0,0,0,0.1-0.1,0.1c0,0-0.1,0-0.1,0.1c0,0,0,0,0,0c0,0,0,0,0,0c0,0-0.1,0-0.1,0c0,0-0.1,0-0.1,0.1c-0.2,0.2-0.5,0.3-0.7,0.4
					c-0.1,0.1-0.1,0.1-0.2,0.1c-0.1,0-0.1,0-0.2,0c-0.1,0-0.1,0-0.1,0s-0.1,0-0.1,0c-0.1,0-0.2,0-0.2,0c-0.1,0-0.1,0-0.2-0.1
					c-0.1-0.1-0.1-0.2-0.1-0.4c0,0,0,0,0,0s0,0,0,0c0-0.1,0-0.2,0.1-0.3c0.1-0.1,0.1-0.2,0.2-0.3c0.1-0.1,0.2-0.3,0.3-0.4
					c0.1-0.1,0.2-0.2,0.3-0.4c0.1-0.1,0.2-0.2,0.4-0.3c0.2-0.2,0.4-0.3,0.5-0.5c0.2-0.2,0.4-0.3,0.5-0.4C79.1,6,79.2,6,79.2,6
					c0.1-0.1,0.2-0.1,0.3-0.2c0.1-0.1,0.2-0.1,0.3-0.2c0,0,0,0,0,0c0,0,0,0,0,0c0,0,0,0,0.1,0c0,0,0,0,0.1,0c0.1,0,0.1,0,0.2,0
					c0,0.1,0.1,0.1,0.1,0.1c0.1,0,0.1,0.1,0.1,0.2c0,0,0,0.1,0,0.1c0,0.1-0.1,0.1-0.1,0.1c0,0-0.1,0-0.1,0c0,0-0.1,0-0.1,0
					c-0.1,0-0.2,0.1-0.3,0.2l-0.2,0.1l0,0c0,0-0.1,0-0.1,0c0,0-0.1,0.1-0.1,0.1c-0.1,0-0.2,0.1-0.2,0.1c-0.1,0.1-0.2,0.1-0.2,0.2
					C78.9,7,78.8,7,78.8,7.1c0,0-0.1,0.1-0.1,0.1c-0.1,0.1-0.2,0.1-0.3,0.2c-0.1,0.1-0.2,0.2-0.3,0.2c-0.1,0-0.1,0.1-0.1,0.1
					c0,0.1-0.1,0.1-0.2,0.1c0,0,0,0.1-0.1,0.1v0v0c-0.1,0-0.1,0.1-0.1,0.1c0,0.1-0.1,0.1-0.1,0.2c0,0.1-0.1,0.2-0.1,0.2
					c-0.1,0.1-0.1,0.1-0.1,0.2c0.1,0,0.2-0.1,0.2-0.1c0.3-0.2,0.7-0.4,1-0.6c0.3-0.2,0.6-0.5,1-0.7c0.1-0.1,0.2-0.1,0.3-0.2
					C79.8,7.1,79.9,7,80,6.9h0v0c0,0,0-0.1,0-0.1c0,0,0-0.1,0-0.1c0,0,0,0,0-0.1c0,0,0-0.1,0-0.1c0,0,0.1,0,0.1,0s0.1,0,0.1,0h0.2
					c0,0,0.1,0,0.2,0.1c0.1,0,0.1,0.1,0.1,0.2c0,0.1-0.1,0.2-0.1,0.3c-0.1,0.1-0.1,0.2-0.2,0.3c0,0.1-0.1,0.2-0.1,0.2v0.1
					c0,0-0.1,0.1-0.1,0.1c0,0.1,0,0.1,0,0.1c0,0,0,0.1-0.1,0.1l-0.1,0.3c0,0.1,0,0.2,0.1,0.2c0.1,0,0.1,0,0.2,0
					c0.1,0,0.2-0.1,0.2-0.1c0.1-0.1,0.2-0.1,0.2-0.1c0.2-0.1,0.3-0.2,0.5-0.3C81.6,7.9,81.8,7.8,81.9,7.8z"/>
				<path class="st0" d="M82.9,8.6c0,0,0.1,0,0.3,0c0.1-0.1,0.3-0.1,0.5-0.2c0.2-0.1,0.4-0.2,0.7-0.3c0.3-0.1,0.5-0.2,0.8-0.3
					c0.1,0,0.2-0.1,0.2-0.1c0.1,0,0.2-0.1,0.2-0.1c0.1-0.1,0.2-0.1,0.2-0.2c0.1-0.1,0.2-0.1,0.3-0.1c0,0,0.1,0,0.1-0.1c0,0,0,0,0,0
					c0,0,0,0,0,0c0,0,0,0,0,0c0,0,0,0.1-0.1,0.2l-0.1,0.1c-0.1,0.1-0.2,0.1-0.3,0.2c-0.1,0.1-0.2,0.1-0.3,0.2
					C85.5,8,85.4,8,85.3,8.1c-0.1,0.1-0.2,0.1-0.4,0.2c-0.1,0-0.3,0.1-0.5,0.3S84,8.9,83.8,9c-0.2,0.2-0.4,0.3-0.6,0.4
					c-0.2,0.1-0.3,0.2-0.4,0.1c0,0-0.1,0-0.1,0c0,0,0,0-0.1,0c-0.2,0-0.3,0-0.4-0.1c-0.1,0-0.2-0.1-0.3-0.2c0-0.1,0-0.2,0-0.4
					c0-0.1,0.1-0.3,0.1-0.4c0-0.1,0.1-0.2,0.1-0.2c0-0.1,0.1-0.1,0.1-0.2c0-0.1,0.1-0.2,0.1-0.3c0-0.1,0.1-0.2,0.1-0.3
					c0.1-0.2,0.2-0.5,0.3-0.7c0.1-0.2,0.3-0.5,0.4-0.7c0.1-0.1,0.2-0.1,0.2-0.1c0,0,0.1,0,0.1,0c0,0,0.1,0,0.1,0
					c0,0,0.1,0.1,0.1,0.1c0,0,0.1,0.1,0.1,0.1c0,0.1,0,0.1,0,0.2c0,0,0,0.1,0,0.1c0,0.1,0,0.1-0.1,0.2c0,0,0,0.1,0,0.1
					c0,0,0,0.1,0,0.1c0,0,0,0,0,0c0,0,0,0,0,0c0,0,0,0,0,0c0,0,0,0,0,0c-0.1,0.1-0.1,0.3-0.2,0.4c-0.1,0.2-0.2,0.3-0.2,0.4
					C83,8.2,83,8.3,82.9,8.4C82.9,8.5,82.9,8.6,82.9,8.6z M83.6,4.9c0,0,0-0.1,0.1-0.2c0.1-0.1,0.1-0.2,0.2-0.2
					c0.1-0.1,0.2-0.1,0.2-0.2c0.1,0,0.1,0,0.2,0c0,0,0,0,0.1,0c0,0,0,0,0,0c0.1,0.1,0.1,0.2,0.1,0.3c0,0.1-0.1,0.2-0.2,0.2
					c0,0,0,0,0,0c0,0,0,0,0,0c0,0,0,0,0,0c0,0,0,0.1-0.1,0c0,0,0,0.1,0,0.1c0,0-0.1,0.1-0.1,0.1c0,0,0,0,0,0c0,0,0,0,0,0
					c0,0.1-0.1,0.1-0.1,0.1c-0.1,0-0.1,0.1-0.1,0.1c0,0,0,0-0.1,0c0,0,0,0-0.1,0c-0.1,0-0.1-0.1-0.1-0.1c0,0,0-0.1,0-0.2
					c0-0.1,0-0.1,0-0.2C83.5,5,83.6,5,83.6,4.9z"/>
				<path class="st0" d="M86.5,7.9c0.1,0,0.1,0,0.2-0.1c0.1-0.1,0.1-0.1,0.2-0.1c0.3-0.2,0.5-0.5,0.8-0.7c0.2-0.2,0.5-0.4,0.8-0.6
					c0.1-0.1,0.2-0.1,0.4-0.2C89,6,89.1,5.9,89.3,5.9c0.1,0,0.2,0,0.3,0.1c0.1,0.1,0.2,0.2,0.2,0.2c0,0.1,0,0.2,0,0.3
					c0,0.1-0.1,0.2-0.1,0.3c0,0.1,0,0.2-0.1,0.4c0,0.2-0.1,0.4-0.1,0.6c0,0.2-0.1,0.4-0.1,0.6c0,0.2,0,0.3,0,0.4
					c0.1,0,0.2-0.1,0.2-0.1c0.1,0,0.2-0.1,0.3-0.1C90,8.6,90,8.6,90.1,8.6c0,0,0,0,0.1,0c0,0,0,0,0,0c0,0,0.1-0.1,0.2-0.1
					c0.1-0.1,0.1-0.1,0.2-0.2c0.1-0.1,0.1-0.1,0.2-0.1c0,0,0.1,0,0.2,0C91,8.1,91.1,8,91.2,8c0.1,0,0.1-0.1,0.2-0.1
					c0.1,0,0.1,0.1,0.1,0.1c0,0,0,0.1,0,0.1c-0.1,0.1-0.2,0.2-0.3,0.2c-0.1,0.1-0.1,0.1-0.2,0.2c0,0-0.1,0.1-0.2,0.1
					c-0.1,0.1-0.2,0.1-0.2,0.2c0,0-0.1,0-0.1,0.1c0,0,0,0-0.1,0.1c0,0-0.1,0.1-0.2,0.2c-0.1,0.1-0.2,0.1-0.4,0.2
					c-0.1,0.1-0.3,0.2-0.4,0.2c-0.1,0-0.2,0-0.3,0c-0.1,0-0.2,0-0.2,0c-0.1,0-0.2,0-0.3-0.2c-0.1-0.1-0.1-0.3-0.1-0.4
					c0-0.1,0-0.2,0-0.3c0-0.2,0.1-0.3,0.1-0.5c0-0.2,0.1-0.3,0.1-0.5c0-0.2,0.1-0.3,0.1-0.3c0-0.1,0-0.3,0.1-0.4
					C89,6.8,89,6.7,89,6.6c-0.1,0-0.2,0.1-0.2,0.1c-0.1,0.1-0.1,0.1-0.2,0.2c-0.2,0.1-0.4,0.3-0.5,0.4c-0.2,0.1-0.3,0.3-0.5,0.5
					C87.5,7.9,87.4,8,87.3,8c-0.1,0.1-0.2,0.2-0.3,0.3c-0.3,0.4-0.6,0.7-0.8,0.9c-0.2,0.2-0.4,0.4-0.5,0.4c-0.1,0-0.2,0-0.3-0.1
					c-0.1-0.1-0.2-0.1-0.2-0.2c0,0,0-0.1,0-0.2c0-0.1,0.1-0.2,0.1-0.2c0.1-0.4,0.2-0.8,0.4-1.1c0.2-0.3,0.3-0.7,0.5-1.1
					c0-0.1,0.1-0.1,0.1-0.2c0-0.1,0.1-0.1,0.1-0.2c0-0.1,0-0.1,0-0.2c0-0.1,0-0.1,0-0.2c0,0,0,0,0.1-0.1c0,0,0.1-0.1,0.1-0.1
					c0.1-0.1,0.2-0.1,0.4-0.1c0.1,0,0.2,0.1,0.2,0.2c0.1,0.1,0.1,0.2,0,0.3S87,6.5,86.9,6.6c0,0.1,0,0.1,0,0.2s0,0.1,0,0.2
					c-0.1,0.1-0.1,0.3-0.2,0.4C86.6,7.5,86.6,7.7,86.5,7.9z"/>
				<path class="st0" d="M92.1,8.6c0,0,0.1,0,0.3,0c0.1-0.1,0.3-0.1,0.5-0.2C93,8.3,93.3,8.2,93.5,8c0.3-0.1,0.5-0.2,0.8-0.3
					c0.1,0,0.2-0.1,0.2-0.1c0.1,0,0.2-0.1,0.2-0.1c0.1-0.1,0.2-0.1,0.2-0.2c0.1-0.1,0.2-0.1,0.3-0.1c0,0,0.1,0,0.1-0.1c0,0,0,0,0,0
					c0,0,0,0,0,0c0,0,0,0,0,0c0,0,0,0.1-0.1,0.2l-0.1,0.1c-0.1,0.1-0.2,0.1-0.3,0.2c-0.1,0.1-0.2,0.1-0.3,0.2
					C94.6,8,94.5,8,94.4,8.1c-0.1,0.1-0.2,0.1-0.4,0.2c-0.1,0-0.3,0.1-0.5,0.3c-0.2,0.1-0.4,0.3-0.7,0.4c-0.2,0.2-0.4,0.3-0.6,0.4
					c-0.2,0.1-0.3,0.2-0.4,0.1c0,0-0.1,0-0.1,0c0,0,0,0-0.1,0c-0.2,0-0.3,0-0.4-0.1c-0.1,0-0.2-0.1-0.3-0.2c0-0.1,0-0.2,0-0.4
					c0-0.1,0.1-0.3,0.1-0.4c0-0.1,0.1-0.2,0.1-0.2c0-0.1,0.1-0.1,0.1-0.2c0-0.1,0.1-0.2,0.1-0.3c0-0.1,0.1-0.2,0.1-0.3
					c0.1-0.2,0.2-0.5,0.3-0.7c0.1-0.2,0.3-0.5,0.4-0.7c0.1-0.1,0.2-0.1,0.2-0.1c0,0,0.1,0,0.1,0c0,0,0.1,0,0.1,0
					c0,0,0.1,0.1,0.1,0.1c0,0,0.1,0.1,0.1,0.1c0,0.1,0,0.1,0,0.2c0,0,0,0.1,0,0.1c0,0.1,0,0.1-0.1,0.2c0,0,0,0.1,0,0.1
					c0,0,0,0.1,0,0.1c0,0,0,0,0,0c0,0,0,0,0,0c0,0,0,0,0,0c0,0,0,0,0,0c-0.1,0.1-0.1,0.3-0.2,0.4c-0.1,0.2-0.2,0.3-0.2,0.4
					c-0.1,0.1-0.1,0.3-0.2,0.4C92,8.5,92,8.6,92.1,8.6z M92.7,4.9c0,0,0-0.1,0.1-0.2c0.1-0.1,0.1-0.2,0.2-0.2
					c0.1-0.1,0.2-0.1,0.2-0.2c0.1,0,0.1,0,0.2,0c0,0,0,0,0.1,0c0,0,0,0,0,0c0.1,0.1,0.1,0.2,0.1,0.3c0,0.1-0.1,0.2-0.2,0.2
					c0,0,0,0,0,0c0,0,0,0,0,0c0,0,0,0,0,0c0,0,0,0.1-0.1,0c0,0,0,0.1,0,0.1c0,0-0.1,0.1-0.1,0.1c0,0,0,0,0,0c0,0,0,0,0,0
					c0,0.1-0.1,0.1-0.1,0.1c-0.1,0-0.1,0.1-0.1,0.1c0,0,0,0-0.1,0c0,0,0,0-0.1,0c-0.1,0-0.1-0.1-0.1-0.1c0,0,0-0.1,0-0.2
					c0-0.1,0-0.1,0-0.2C92.7,5,92.7,5,92.7,4.9z"/>
				<path class="st0" d="M95.6,7.9c0.1,0,0.1,0,0.2-0.1c0.1-0.1,0.1-0.1,0.2-0.1c0.3-0.2,0.5-0.5,0.8-0.7c0.2-0.2,0.5-0.4,0.8-0.6
					c0.1-0.1,0.2-0.1,0.4-0.2c0.1-0.1,0.3-0.1,0.4-0.1c0.1,0,0.2,0,0.3,0.1c0.1,0.1,0.2,0.2,0.2,0.2c0,0.1,0,0.2,0,0.3
					c0,0.1-0.1,0.2-0.1,0.3c0,0.1,0,0.2-0.1,0.4c0,0.2-0.1,0.4-0.1,0.6c0,0.2-0.1,0.4-0.1,0.6c0,0.2,0,0.3,0,0.4
					c0.1,0,0.2-0.1,0.2-0.1c0.1,0,0.2-0.1,0.3-0.1c0.1-0.1,0.2-0.1,0.2-0.1c0,0,0,0,0.1,0c0,0,0,0,0,0c0,0,0.1-0.1,0.2-0.1
					c0.1-0.1,0.1-0.1,0.2-0.2c0.1-0.1,0.1-0.1,0.2-0.1c0,0,0.1,0,0.2,0c0.1-0.1,0.2-0.1,0.2-0.1c0.1,0,0.1-0.1,0.2-0.1
					c0.1,0,0.1,0.1,0.1,0.1c0,0,0,0.1,0,0.1c-0.1,0.1-0.2,0.2-0.3,0.2c-0.1,0.1-0.1,0.1-0.2,0.2c0,0-0.1,0.1-0.2,0.1
					c-0.1,0.1-0.2,0.1-0.2,0.2c0,0-0.1,0-0.1,0.1c0,0,0,0-0.1,0.1c0,0-0.1,0.1-0.2,0.2c-0.1,0.1-0.2,0.1-0.4,0.2
					c-0.1,0.1-0.3,0.2-0.4,0.2c-0.1,0-0.2,0-0.3,0c-0.1,0-0.2,0-0.2,0c-0.1,0-0.2,0-0.3-0.2c-0.1-0.1-0.1-0.3-0.1-0.4
					c0-0.1,0-0.2,0-0.3c0-0.2,0.1-0.3,0.1-0.5c0-0.2,0.1-0.3,0.1-0.5C98,7.5,98,7.4,98,7.3c0-0.1,0-0.3,0.1-0.4
					c0-0.1,0.1-0.2,0.1-0.3c-0.1,0-0.2,0.1-0.2,0.1c-0.1,0.1-0.1,0.1-0.2,0.2c-0.2,0.1-0.4,0.3-0.5,0.4c-0.2,0.1-0.3,0.3-0.5,0.5
					C96.6,7.9,96.5,8,96.4,8c-0.1,0.1-0.2,0.2-0.3,0.3c-0.3,0.4-0.6,0.7-0.8,0.9c-0.2,0.2-0.4,0.4-0.5,0.4c-0.1,0-0.2,0-0.3-0.1
					c-0.1-0.1-0.2-0.1-0.2-0.2c0,0,0-0.1,0-0.2c0-0.1,0.1-0.2,0.1-0.2c0.1-0.4,0.2-0.8,0.4-1.1c0.2-0.3,0.3-0.7,0.5-1.1
					c0-0.1,0.1-0.1,0.1-0.2c0-0.1,0.1-0.1,0.1-0.2c0-0.1,0-0.1,0-0.2c0-0.1,0-0.1,0-0.2c0,0,0,0,0.1-0.1c0,0,0.1-0.1,0.1-0.1
					c0.1-0.1,0.2-0.1,0.4-0.1c0.1,0,0.2,0.1,0.2,0.2c0.1,0.1,0.1,0.2,0,0.3s-0.1,0.2-0.2,0.3c0,0.1,0,0.1,0,0.2s0,0.1,0,0.2
					c-0.1,0.1-0.1,0.3-0.2,0.4C95.7,7.5,95.7,7.7,95.6,7.9z"/>
				<path class="st0" d="M97.8,16.5c-0.1-0.1-0.2-0.2-0.3-0.3c-0.1-0.1-0.1-0.2-0.1-0.2c0-0.5,0.1-1.1,0.4-1.7
					c0.3-0.6,0.6-1.1,1.1-1.7c0.4-0.6,0.9-1.1,1.4-1.6c0.5-0.5,1-1,1.5-1.4c0.1-0.1,0.2-0.1,0.3-0.2c0.1-0.1,0.2-0.2,0.3-0.2
					c0.1-0.1,0.2-0.1,0.2-0.1c0,0,0.1,0,0.1-0.1c0,0,0,0,0.1-0.1c0-0.1,0-0.1,0-0.1c0-0.1,0.1-0.1,0.1-0.2c0,0,0-0.1,0.1-0.1
					c0,0,0-0.1,0-0.1c0,0,0-0.1,0.1-0.2c0-0.1,0-0.1,0.1-0.2c0-0.1,0-0.1,0-0.2c0,0,0,0-0.1,0.1c0,0,0,0,0,0c0,0,0,0-0.1,0.1
					c0,0,0,0-0.1,0.1c-0.1,0-0.1,0-0.1,0.1c-0.1,0.1-0.2,0.2-0.3,0.2c-0.1,0.1-0.2,0.1-0.3,0.2c0,0-0.1,0.1-0.2,0.1
					c-0.1,0-0.2,0.1-0.3,0.1c-0.1,0-0.2,0.1-0.3,0.1c-0.1,0-0.2,0.1-0.2,0.1c0,0-0.1,0-0.2,0c-0.1,0-0.2,0-0.3,0c-0.1,0-0.2,0-0.3,0
					c-0.1,0-0.2,0-0.2,0h0c0,0,0,0,0,0c0,0,0,0-0.1,0c0-0.1-0.1-0.1-0.1-0.2c0-0.1,0-0.2,0-0.3c0-0.1,0-0.2,0-0.3
					c0-0.1,0-0.2,0.1-0.2c0-0.1,0.1-0.1,0.1-0.2c0-0.1,0-0.1,0.1-0.2c0,0,0,0,0,0c0,0,0,0,0,0c0-0.1,0.1-0.2,0.2-0.4
					c0.1-0.2,0.3-0.3,0.4-0.5c0.2-0.2,0.3-0.3,0.5-0.5c0.1-0.1,0.2-0.2,0.3-0.3c0,0,0,0,0.1-0.1c0,0,0.1-0.1,0.1-0.1
					c0.1,0,0.1-0.1,0.1-0.1c0,0,0.1,0,0.1,0c0.1-0.1,0.2-0.1,0.3-0.2c0.1-0.1,0.2-0.1,0.3-0.2c0,0,0.1,0,0.1,0c0,0,0.1,0,0.1,0
					c0.2,0,0.2,0,0.2,0.1c0,0.1-0.1,0.1-0.2,0.2c-0.1,0.1-0.2,0.2-0.3,0.2c-0.1,0.1-0.2,0.2-0.3,0.2c-0.1,0.1-0.1,0.1-0.2,0.2
					c-0.1,0.1-0.1,0.1-0.2,0.2c-0.1,0.1-0.1,0.1-0.2,0.1c-0.1,0-0.1,0.1-0.1,0.2C102,6.9,101.9,7,101.8,7c-0.1,0.1-0.1,0.1-0.1,0.2
					c-0.1,0.1-0.2,0.1-0.2,0.2c-0.1,0.1-0.1,0.2-0.2,0.3c-0.1,0.1-0.2,0.2-0.2,0.4c-0.1,0.1-0.1,0.3-0.2,0.4c0,0,0,0.1,0,0.1
					c0,0,0,0.1,0,0.1c0,0,0.1,0,0.1,0c0,0,0,0,0.1,0c0.1-0.1,0.2-0.1,0.2-0.1c0.1,0,0.1-0.1,0.2-0.1c0.1,0,0.1-0.1,0.1-0.1
					c0,0,0.1,0,0.1-0.1c0.2-0.1,0.4-0.3,0.6-0.5c0.2-0.2,0.4-0.3,0.6-0.5c0.1,0,0.1-0.1,0.2-0.1c0.1-0.1,0.1-0.1,0.2-0.2
					c0.1,0,0.1-0.1,0.2-0.1s0.1-0.1,0.1-0.1c0-0.1,0-0.1,0-0.1c0,0,0,0,0.1-0.1c0,0,0.1-0.1,0.1-0.1c0,0,0.1-0.1,0.2-0.1
					c0,0,0.1,0,0.1,0c0,0,0.1,0,0.1,0c0,0,0,0,0.1,0c0,0,0.1,0,0.1,0c0.1,0.1,0.1,0.2,0.1,0.2s0,0.1,0,0.2c0,0.1-0.1,0.2-0.1,0.3
					c0,0.1,0,0.2-0.1,0.3c0,0.2-0.1,0.3-0.1,0.4c-0.1,0.1-0.1,0.3-0.1,0.4c0.1-0.1,0.2-0.2,0.3-0.3c0.2-0.1,0.3-0.2,0.5-0.3
					c0.2-0.1,0.3-0.2,0.5-0.2c0.2-0.1,0.3-0.1,0.3-0.2h0c0,0,0,0,0.1-0.1c0,0,0,0,0.1,0c0.1,0,0.1-0.1,0.2-0.1
					c0.1,0,0.1-0.1,0.2-0.1c0,0,0,0,0,0c0.2-0.1,0.4-0.2,0.6-0.3c0.2-0.1,0.4-0.2,0.7-0.2c0,0,0,0,0,0c0,0,0,0,0,0c0,0,0,0,0,0
					c0,0,0,0-0.1,0c0,0,0,0,0,0c0,0,0,0,0,0c0,0,0,0,0,0c0,0,0,0,0,0c0,0,0.1,0,0.1,0c0,0,0,0,0,0c0,0,0,0.1-0.1,0.1
					c0,0-0.1,0-0.1,0.1c0,0,0,0,0,0c0,0,0,0.1-0.1,0.1c0,0-0.1,0-0.1,0c0,0,0,0,0.1,0c-0.1,0.1-0.2,0.1-0.3,0.1
					c-0.1,0-0.2,0.1-0.3,0.2c0,0,0,0,0,0c-0.1,0.1-0.1,0.1-0.3,0.2c-0.1,0.1-0.3,0.2-0.5,0.3c-0.2,0.1-0.3,0.2-0.5,0.3
					c-0.2,0.1-0.3,0.2-0.4,0.2c-0.1,0.1-0.2,0.1-0.3,0.2c-0.1,0.1-0.2,0.1-0.3,0.2c-0.1,0-0.1,0-0.2,0.1c0,0-0.1,0.1-0.1,0.1
					L104,8.8c-0.1,0.1-0.1,0.1-0.2,0.1c-0.1,0-0.1,0.1-0.1,0.2c-0.1,0.1-0.2,0.2-0.2,0.3c0,0.1-0.1,0.2-0.1,0.3
					c-0.3,0.6-0.6,1.3-0.8,2c-0.3,0.7-0.6,1.3-1,2c-0.4,0.6-0.8,1.2-1.3,1.7c-0.5,0.5-1.1,0.9-1.7,1.2c-0.1,0-0.2,0.1-0.4,0.1
					C98,16.6,97.9,16.6,97.8,16.5z M102.1,10.3c-0.2,0.2-0.5,0.5-0.7,0.7c-0.3,0.2-0.5,0.5-0.7,0.7c-0.2,0.2-0.4,0.4-0.5,0.6
					c-0.2,0.2-0.3,0.3-0.3,0.4c-0.2,0.2-0.3,0.4-0.5,0.6c-0.2,0.2-0.4,0.4-0.5,0.7c-0.2,0.2-0.3,0.5-0.4,0.7
					c-0.1,0.3-0.2,0.5-0.2,0.8c0,0,0,0.1,0,0.1c0,0.1,0,0.1,0.1,0.2c0.3-0.1,0.7-0.2,1-0.4c0.3-0.2,0.6-0.5,0.9-0.8s0.5-0.7,0.8-1.1
					c0.2-0.4,0.5-0.8,0.7-1.2c0.2-0.4,0.4-0.8,0.5-1.1c0.2-0.4,0.3-0.6,0.4-0.9c0,0,0-0.1,0-0.1c0,0,0,0,0-0.1
					c-0.1,0.1-0.1,0.1-0.2,0.1C102.1,10.2,102.1,10.3,102.1,10.3z"/>
			</g>
		</g>
	</g>
	<g>
		<g>
			<path class="st0" d="M3.7,5.3C3.5,5.2,3.4,5.2,3.2,5.1c-0.1,0-0.2,0-0.3,0C2.6,5.2,2.3,5.4,2.1,5.7C1.9,6,1.8,6.5,1.8,7.1
				c0,0.6,0.1,1.1,0.4,1.4C2.3,8.8,2.6,8.9,2.9,9C3,9,3.1,9,3.2,9c0.7,0,1.2-0.3,1.6-1h0.4C4.8,9,4.1,9.5,2.9,9.5
				c-0.9,0-1.5-0.2-2-0.7c-0.4-0.5-0.7-1-0.7-1.7S0.5,5.8,1,5.4c0.4-0.5,1.1-0.7,2-0.7c0.9,0,1.6,0.3,2,0.9C5,5.7,5,5.8,5,5.9
				c0,0.2-0.1,0.4-0.2,0.5C4.7,6.6,4.5,6.7,4.3,6.7c-0.2,0-0.4-0.1-0.5-0.2C3.7,6.3,3.6,6.1,3.6,5.9c0-0.2,0.1-0.4,0.2-0.5
				C3.9,5.4,3.8,5.3,3.7,5.3z"/>
			<path class="st0" d="M13.6,5.4c0.4,0.5,0.7,1,0.7,1.7c0,0.7-0.2,1.2-0.7,1.7c-0.4,0.5-1,0.7-1.8,0.7c-0.8,0-1.4-0.2-1.8-0.7
				c-0.4-0.5-0.7-1-0.7-1.7c0-0.7,0.2-1.3,0.7-1.7c0.4-0.5,1-0.7,1.8-0.7C12.6,4.7,13.2,4.9,13.6,5.4z M11.8,5.1
				c-0.3,0-0.6,0.2-0.7,0.6c-0.2,0.4-0.3,0.8-0.3,1.4c0,0.6,0.1,1.1,0.3,1.4c0.2,0.4,0.4,0.6,0.7,0.6c0.3,0,0.6-0.2,0.7-0.6
				c0.2-0.4,0.3-0.8,0.3-1.4c0-0.6-0.1-1.1-0.3-1.4C12.4,5.3,12.1,5.1,11.8,5.1z"/>
			<path class="st0" d="M17.3,4.8c0.2,0.1,0.3,0.2,0.5,0.3l0.1-0.4h0.4V6h-0.4c-0.1-0.3-0.3-0.5-0.4-0.6c-0.2-0.1-0.4-0.2-0.7-0.2
				c-0.4,0-0.6,0.2-0.7,0.6c0,0.4,0.3,0.6,0.9,0.7c1,0.2,1.5,0.7,1.5,1.5c0,0.5-0.2,0.8-0.6,1.1c-0.4,0.3-0.7,0.4-1.1,0.4
				c-0.3,0-0.6-0.1-0.8-0.1c-0.2-0.1-0.4-0.2-0.5-0.3l-0.1,0.4h-0.4V8.1h0.4c0.1,0.3,0.2,0.5,0.5,0.7C16,8.9,16.3,9,16.6,9
				c0.4-0.1,0.7-0.3,0.7-0.7c0-0.4-0.3-0.7-0.9-0.8c-0.9-0.2-1.4-0.7-1.4-1.4c0-0.5,0.2-0.8,0.5-1.1c0.3-0.2,0.7-0.4,1.2-0.4
				C16.9,4.7,17.1,4.7,17.3,4.8z"/>
			<path class="st0" d="M21.3,4.8c0.2,0.1,0.3,0.2,0.5,0.3l0.1-0.4h0.4V6h-0.4c-0.1-0.3-0.3-0.5-0.4-0.6c-0.2-0.1-0.4-0.2-0.7-0.2
				c-0.4,0-0.6,0.2-0.7,0.6c0,0.4,0.3,0.6,0.9,0.7c1,0.2,1.5,0.7,1.5,1.5c0,0.5-0.2,0.8-0.6,1.1c-0.4,0.3-0.7,0.4-1.1,0.4
				c-0.3,0-0.6-0.1-0.8-0.1c-0.2-0.1-0.4-0.2-0.5-0.3l-0.1,0.4h-0.4V8.1h0.4c0.1,0.3,0.2,0.5,0.5,0.7C20,8.9,20.3,9,20.7,9
				c0.4-0.1,0.7-0.3,0.7-0.7c0-0.4-0.3-0.7-0.9-0.8C19.5,7.2,19,6.8,19,6.1c0-0.5,0.2-0.8,0.5-1.1c0.3-0.2,0.7-0.4,1.2-0.4
				C20.9,4.7,21.1,4.7,21.3,4.8z"/>
			<path class="st0" d="M27.1,5.4c0.4,0.5,0.7,1,0.7,1.7c0,0.7-0.2,1.2-0.7,1.7c-0.4,0.5-1,0.7-1.8,0.7c-0.8,0-1.4-0.2-1.8-0.7
				c-0.4-0.5-0.7-1-0.7-1.7c0-0.7,0.2-1.3,0.7-1.7c0.4-0.5,1-0.7,1.8-0.7C26.1,4.7,26.7,4.9,27.1,5.4z M25.3,5.1
				c-0.3,0-0.6,0.2-0.7,0.6c-0.2,0.4-0.3,0.8-0.3,1.4c0,0.6,0.1,1.1,0.3,1.4c0.2,0.4,0.4,0.6,0.7,0.6c0.3,0,0.6-0.2,0.7-0.6
				c0.2-0.4,0.3-0.8,0.3-1.4c0-0.6-0.1-1.1-0.3-1.4C25.9,5.3,25.7,5.1,25.3,5.1z"/>
			<path class="st0" d="M30.7,8.1l1.2-3.1h-0.6V4.6h1.6v0.4h-0.6l-1.8,4.4h-0.6l-1.8-4.4h-0.6V4.6h2.6v0.4h-0.6L30.7,8.1z"/>
			<path class="st0" d="M35.5,9.5c-0.9,0-1.5-0.2-2-0.7c-0.4-0.5-0.7-1-0.7-1.7c0-0.7,0.2-1.3,0.7-1.7c0.4-0.5,1-0.7,1.8-0.7
				c0.8,0,1.4,0.2,1.8,0.7c0.4,0.4,0.6,1,0.6,1.7h-3.4v0.1c0,0.6,0.1,1.1,0.4,1.4c0.2,0.3,0.4,0.4,0.7,0.5c0.1,0,0.2,0,0.3,0
				c0.7,0,1.2-0.3,1.6-1h0.4C37.4,9,36.6,9.5,35.5,9.5z M36.3,6.6c0-0.4-0.1-0.7-0.3-1c-0.2-0.4-0.4-0.5-0.7-0.5
				c-0.3,0-0.6,0.2-0.7,0.5c-0.1,0.3-0.2,0.6-0.3,1H36.3z"/>
			<path class="st0" d="M9.1,4.8C9,4.7,8.9,4.7,8.7,4.6c-0.6,0-1.1,0.2-1.5,0.7V4.7h-2v0.5h0.3h0l0,0c0.1,0,0.2,0,0.2,0.3l0-0.3h0
				v0.3v3.4C5.8,8.9,5.7,9,5.3,9v0.4h2.6V9C7.4,9,7.3,8.9,7.2,8.8V6c0.1-0.2,0.2-0.3,0.4-0.5c0.2-0.1,0.3-0.1,0.3,0
				C8,5.7,8.1,5.9,8.2,6c0.2,0.1,0.3,0.2,0.5,0.2c0.2,0,0.3-0.1,0.5-0.3c0.1-0.2,0.2-0.3,0.2-0.5C9.4,5.2,9.3,5,9.1,4.8z"/>
			<path class="st0" d="M41.8,4.8c-0.1-0.1-0.3-0.2-0.4-0.2c-0.6,0-1.1,0.2-1.5,0.7V4.7h-2v0.5h0.3h0l0,0c0.1,0,0.2,0,0.2,0.3l0-0.3
				h0v0.3v3.4c0,0.1-0.1,0.2-0.6,0.2v0.4h2.6V9c-0.5,0-0.6-0.2-0.6-0.2V6c0.1-0.2,0.2-0.3,0.4-0.5c0.2-0.1,0.3-0.1,0.3,0
				c0,0.2,0.1,0.4,0.3,0.5c0.2,0.1,0.3,0.2,0.5,0.2c0.2,0,0.3-0.1,0.5-0.3C42,5.7,42,5.5,42,5.4C42,5.2,41.9,5,41.8,4.8z"/>
		</g>
	</g>
</g>
</svg>
