<svg xmlns="http://www.w3.org/2000/svg" width="400.773" height="66.947" viewBox="0 0 400.773 66.947"><defs><style>.a{fill:#fff;}.b{fill:#fab73e;}</style></defs><g transform="translate(0 0.26)"><path class="a" d="M30.476,16.164v8.523c0,10.462-5.055,16.164-15.341,16.164H10.286V65.419H0V0H15.135C25.421,0,30.476,5.7,30.476,16.164ZM10.286,9.346V31.5h4.849c3.262,0,5.055-1.5,5.055-6.172V15.517c0-4.673-1.763-6.172-5.055-6.172H10.286Z" transform="translate(0 0.504)"/><path class="a" d="M33.492,65.419c-.558-1.675-.94-2.7-.94-8.023V47.11c0-6.083-2.057-8.317-6.73-8.317H22.266V65.419H11.98V0H27.5C38.165,0,42.72,4.967,42.72,15.047V20.19c0,6.73-2.145,11.021-6.73,13.166v.176c5.143,2.145,6.818,7.024,6.818,13.842v10.08c0,3.174.088,5.525,1.117,7.935H33.492ZM22.3,9.346v20.1h4.026c3.821,0,6.172-1.675,6.172-6.906V16.076c0-4.673-1.587-6.73-5.231-6.73H22.3Z" transform="translate(23.228 0.504)"/><path class="a" d="M24.49,16.2C24.49,5.735,30.015-.26,40.1-.26c10.11,0,15.605,6,15.605,16.458V50.23c0,10.462-5.525,16.458-15.605,16.458s-15.605-6-15.605-16.458V16.2ZM34.776,50.876c0,4.673,2.057,6.436,5.319,6.436s5.319-1.763,5.319-6.436V15.551c0-4.673-2.057-6.436-5.319-6.436s-5.319,1.763-5.319,6.436Z" transform="translate(47.483 0)"/><path class="a" d="M36.41,56.073c1.117.088,2.439.088,3.556.088,3.262,0,5.878-1.2,5.878-6.26V0H56.13V49.167c0,13.078-7.024,16.458-14.753,16.458a45.123,45.123,0,0,1-4.967-.176Z" transform="translate(70.594 0.504)"/><path class="a" d="M55.8,27.567H69.9v9.346H55.8V56.073H73.547v9.346H45.51V0H73.547V9.346H55.8Z" transform="translate(88.238 0.504)"/><path class="a" d="M87.6,41.531v8.7c0,10.462-5.231,16.458-15.341,16.458-10.08,0-15.341-6-15.341-16.458V16.2C56.92,5.735,62.151-.26,72.261-.26c10.08,0,15.341,6,15.341,16.458v6.348H77.874V15.551c0-4.673-2.057-6.436-5.319-6.436s-5.319,1.763-5.319,6.436V50.876c0,4.673,2.057,6.348,5.319,6.348s5.319-1.675,5.319-6.348V41.531H87.6Z" transform="translate(110.36 0)"/><path class="a" d="M68.489,0h31.769V9.346H89.5V65.419H79.216V9.346H68.46V0Z" transform="translate(132.734 0.504)"/><path class="b" d="M84.739,0h31.769V9.346H105.752V65.419H95.466V9.346H84.71V0Z" transform="translate(164.241 0.504)"/><path class="b" d="M107.346,27.567h14.107v9.346H107.346V56.073H125.1v9.346H97.06V0H125.1V9.346H107.346Z" transform="translate(188.186 0.504)"/><path class="b" d="M143.8,65.419H133.428l-1.763-11.873H119.057l-1.763,11.873H107.86L118.264,0h15.047ZM120.321,44.671h9.9l-4.849-33.092H125.2Z" transform="translate(209.126 0.504)"/><path class="b" d="M143.438,46.463h.176L150.52,0h14.312V65.419H155.1v-46.9h-.176l-6.906,46.934h-9.728L130.83,19.191h-.176V65.448H121.69V0H136Z" transform="translate(235.94 0.504)"/></g></svg>