<?xml version="1.0" encoding="utf-8"?>
<!-- Generator: Adobe Illustrator 24.0.2, SVG Export Plug-In . SVG Version: 6.00 Build 0)  -->
<svg version="1.1" id="Layer_1" xmlns="http://www.w3.org/2000/svg" xmlns:xlink="http://www.w3.org/1999/xlink" x="0px" y="0px"
	 viewBox="0 0 136.4 14.7" style="enable-background:new 0 0 136.4 14.7;" xml:space="preserve">
<style type="text/css">
	.st0{fill:#FFFFFF;}
	.st1{fill:#FDB940;}
</style>
<g>
	<g>
		<g>
			<g>
				<polygon class="st0" points="9.2,0.1 8.8,0.1 8.8,0.5 8.8,6.7 1.4,6.7 1.4,0.5 1.4,0.1 0.9,0.1 0.4,0.1 0,0.1 0,0.5 0,14.3 
					0,14.7 0.4,14.7 0.9,14.7 1.4,14.7 1.4,14.3 1.4,8.1 8.8,8.1 8.8,14.3 8.8,14.7 9.2,14.7 9.7,14.7 10.1,14.7 10.1,14.3 
					10.1,0.5 10.1,0.1 9.7,0.1 				"/>
				<path class="st0" d="M20.5,0.1H20v0.4v9.4c0,1-0.4,1.9-1.1,2.6s-1.6,1.1-2.6,1.1s-1.9-0.4-2.6-1.1c-0.7-0.7-1.1-1.6-1.1-2.6V0.5
					V0.1h-0.4h-0.5h-0.4v0.4v9.4c0,1.4,0.5,2.6,1.5,3.6S15,15,16.4,15s2.6-0.5,3.6-1.5s1.5-2.2,1.5-3.6V0.5V0.1H21H20.5z"/>
				<polygon class="st0" points="35,0.1 34.8,0.1 34.6,0.3 29.3,12.7 24,0.3 23.9,0.1 23.6,0.1 22.7,0.1 22.3,0.1 22.3,0.5 
					22.3,14.3 22.3,14.7 22.7,14.7 23.3,14.7 23.7,14.7 23.7,14.3 23.7,3.1 28.6,14.5 28.7,14.7 29,14.7 29.6,14.7 29.9,14.7 
					30,14.5 35,3.1 35,14.3 35,14.7 35.4,14.7 35.9,14.7 36.3,14.7 36.3,14.3 36.3,0.5 36.3,0.1 35.9,0.1 				"/>
				<path class="st0" d="M46.3,0.1H46l-0.1,0.2l-8.7,13.8l-0.4,0.7h0.8h0.6h0.2l0.1-0.2l2.2-3.5h5.6v3.2v0.4h0.4h0.5h0.4v-0.4V0.5
					V0.1h-0.4H46.3z M46.3,2.2v7.5h-4.7L46.3,2.2z"/>
				<polygon class="st0" points="58.4,0.1 57.8,0.1 57.4,0.1 57.4,0.5 57.4,12.3 50.3,0.3 50.2,0.1 49.9,0.1 49.1,0.1 48.7,0.1 
					48.7,0.5 48.7,14.3 48.7,14.7 49.1,14.7 49.6,14.7 50,14.7 50,14.3 50,2.6 57.2,14.5 57.3,14.7 57.5,14.7 58.4,14.7 58.8,14.7 
					58.8,14.3 58.8,0.5 58.8,0.1 				"/>
			</g>
			<g>
				<polygon class="st0" points="86.8,0.1 86.3,0.1 86.3,0.5 86.3,6.7 78.9,6.7 78.9,0.5 78.9,0.1 78.5,0.1 78,0.1 77.6,0.1 
					77.6,0.5 77.6,14.3 77.6,14.7 78,14.7 78.5,14.7 78.9,14.7 78.9,14.3 78.9,8.1 86.3,8.1 86.3,14.3 86.3,14.7 86.8,14.7 
					87.3,14.7 87.7,14.7 87.7,14.3 87.7,0.5 87.7,0.1 87.3,0.1 				"/>
				<path class="st0" d="M98,0.1h-0.4v0.4v9.4c0,1-0.3,1.9-1.1,2.6c-0.7,0.7-1.6,1.1-2.6,1.1s-1.9-0.3-2.6-1.1s-1.1-1.6-1.1-2.6V0.5
					V0.1h-0.4h-0.5h-0.4v0.4v9.4c0,1.4,0.5,2.6,1.5,3.6S92.6,15,94,15s2.6-0.5,3.6-1.5s1.5-2.2,1.5-3.6V0.5V0.1h-0.4H98z"/>
				<polygon class="st0" points="112.6,0.1 112.3,0.1 112.2,0.3 106.9,12.7 101.6,0.3 101.4,0.1 101.2,0.1 100.3,0.1 99.9,0.1 
					99.9,0.5 99.9,14.3 99.9,14.7 100.3,14.7 100.8,14.7 101.3,14.7 101.3,14.3 101.3,3.1 106.2,14.5 106.3,14.7 106.6,14.7 
					107.2,14.7 107.5,14.7 107.6,14.5 112.5,3.1 112.5,14.3 112.5,14.7 112.9,14.7 113.5,14.7 113.9,14.7 113.9,14.3 113.9,0.5 
					113.9,0.1 113.5,0.1 				"/>
				<path class="st0" d="M115.3,0.1h-0.4v0.4v13.8v0.4h0.4h0.5h0.4v-0.4v-3.2h5.6l2.2,3.4l0.1,0.2h0.2h0.6h0.8l-0.4-0.7l-8.7-13.8
					L116.5,0h-0.2L115.3,0.1L115.3,0.1z M121,9.7h-4.7V2.2L121,9.7z"/>
				<polygon class="st0" points="135.9,0.1 135.4,0.1 135,0.1 135,0.5 135,12.3 127.8,0.3 127.7,0.1 127.5,0.1 126.7,0.1 126.3,0.1 
					126.3,0.5 126.3,14.3 126.3,14.7 126.7,14.7 127.2,14.7 127.6,14.7 127.6,14.3 127.6,2.6 134.8,14.5 134.9,14.7 135.1,14.7 
					135.9,14.7 136.4,14.7 136.4,14.3 136.4,0.5 136.4,0.1 				"/>
			</g>
			<path class="st1" d="M75.8,7.5c-0.2,0.1-0.4,0.2-0.7,0.4c-0.3,0.1-0.5,0.2-0.7,0.3S74,8.3,73.9,8.3s-0.1,0-0.2,0h-0.3l0.1-0.2
				c0.3-0.5,0.5-1,0.6-1.3s0.1-0.6,0-0.8s-0.2-0.3-0.4-0.4c-0.1,0-0.3-0.1-0.4-0.1s-0.2,0-0.3,0c-0.5,0.1-1.1,0.4-1.8,0.7
				c-0.4,0.2-0.6,0.5-0.6,0.8c0,0.4,0.4,1,1.2,1.5l0.1,0.1l-0.1,0.1c-0.2,0.4-0.7,0.9-1.3,1.5c-0.6,0.6-1.3,1-1.9,1.5
				c-0.3,0.2-0.4,0.2-0.6,0.2c-0.1,0-0.2,0-0.2-0.1c-0.1-0.1-0.1-0.3,0.3-0.9c0.2-0.2,0.4-0.5,0.6-0.9s0.6-0.7,0.9-1
				s0.6-0.6,0.8-0.8c-0.2-0.5-0.4-0.9-0.7-0.9c-0.1,0-0.2,0-0.3,0.1l0,0l0,0c-0.2,0.2-0.5,0.4-0.8,0.7S68,8.7,67.7,9l-1.1,1l0,0
				c-0.2,0.1-0.3,0.2-0.4,0.2c-0.3,0.2-0.6,0.4-0.8,0.5c-0.3,0.2-0.5,0.3-0.7,0.4s-0.5,0.3-0.9,0.4c-0.4,0.2-0.6,0.2-0.7,0.2H63
				c-0.3-0.1-0.3-0.3-0.3-0.3c0-0.1,0.1-0.2,0.5-0.6c0.3-0.3,0.7-0.7,1.3-1.4c0.6-0.6,1.5-1.6,2.6-2.8l0.1-0.1h0.1h2.5
				c0.3-0.2,0.5-0.4,0.6-0.7s0.1-0.4,0-0.4h-1.8h-0.4l0.3-0.3c1.1-1.1,1.7-1.9,1.8-2l0,0l0,0l0,0c0,0,0.1-0.1,0.2-0.3
				c0.2-0.2,0.1-0.4,0.1-0.4s-0.1-0.1-0.5-0.1H70c-0.4,0-0.7,0-1,0.1c0,0-0.1,0.1-0.1,0.2c-0.1,0.1-0.8,0.9-2.5,2.8l-0.1,0.1h-0.1
				c-0.3,0-0.5,0-0.7,0c-0.8,0-1.1,0-1.2-0.1l0,0c0,0-0.2,0-0.4,0.6c-0.1,0.4-0.1,0.5,0,0.5s0.1,0,0.1,0l0,0l0,0l0,0
				c0.2,0,0.3,0,0.4,0s0.2,0,0.3,0l0.5-0.1L65,6.7c-0.3,0.3-0.8,1-1.7,1.9c-0.8,1-1.5,1.8-2,2.5c-0.4,0.6-0.5,1.1-0.1,1.5
				c0.1,0.2,0.3,0.2,0.6,0.2c0.2,0,0.4,0,0.6-0.1c0.7-0.2,1.3-0.5,2-0.9c0.4-0.3,1.4-0.8,2.2-1.4c0,0-0.1,0-0.1,0.1
				c-0.3,0.6-0.5,1.1-0.4,1.5c0,0.5,0.3,0.8,0.8,0.9c0.1,0,0.2,0,0.3,0c0.5,0,1.2-0.2,1.9-0.6c0.9-0.5,1.7-1,2.4-1.7
				c0.7-0.7,1.3-1.3,1.7-1.9l0.1-0.1h0.1c0.7,0,1.2-0.1,1.5-0.3c0.4-0.2,0.5-0.2,0.5-0.3l0,0l0,0C75.6,7.9,75.8,7.7,75.8,7.5
				c0.2-0.1,0.3-0.2,0.4-0.3l0,0C76.1,7.4,75.9,7.4,75.8,7.5z M72.7,7.8L72.7,7.8L72.7,7.8c-0.4,0-0.6-0.2-0.8-0.4l-0.1-0.1l0.1-0.1
				c0.3-0.3,0.6-0.4,0.8-0.4c0.1,0,0.2,0,0.3,0.1h0.1l0,0C73.1,7.2,72.9,7.5,72.7,7.8z"/>
		</g>
	</g>
</g>
</svg>
