<svg xmlns="http://www.w3.org/2000/svg" width="476" height="55.01" viewBox="0 0 476 55.01"><defs><style>.a{fill:#fff;}</style></defs><path class="a" d="M51.485,24.992a1.7,1.7,0,0,1,1.885,1.885V52.043a1.7,1.7,0,0,1-1.885,1.885H43.945a1.7,1.7,0,0,1-1.885-1.885V47.75c-3.56,4.747-9.04,7.225-16.091,7.225C11.239,54.975,0,43.038,0,27.47S11.554,0,27.47,0c12.007,0,22.2,7.4,25.306,17.069.454,1.291-.209,2.129-1.571,2.129H42.3a2.325,2.325,0,0,1-2.2-1.361c-2.2-3.386-7.016-6.039-12.6-6.039-9.355,0-15.393,6.283-15.393,15.707C12.112,37.7,18.6,43.98,27.505,43.98c5.69,0,11.344-2.374,13.508-8.377H29.6a1.7,1.7,0,0,1-1.885-1.885V26.877A1.7,1.7,0,0,1,29.6,24.992Z"/><path class="a" d="M16.91,27.47A27.234,27.234,0,0,1,44.38,0a27.256,27.256,0,0,1,27.47,27.47,27.256,27.256,0,0,1-27.47,27.47A27.234,27.234,0,0,1,16.91,27.47Zm42.9,0c0-9.424-6.806-15.707-15.393-15.707S29.022,18.046,29.022,27.47s6.806,15.707,15.393,15.707S59.808,36.93,59.808,27.47Z" transform="translate(42.114 0)"/><path class="a" d="M72.541,2.185v7.854a1.7,1.7,0,0,1-1.885,1.885H60.464V51.261a1.7,1.7,0,0,1-1.885,1.885H50.272a1.7,1.7,0,0,1-1.885-1.885V11.923H38.195a1.7,1.7,0,0,1-1.885-1.885V2.185A1.7,1.7,0,0,1,38.195.3H70.657A1.726,1.726,0,0,1,72.541,2.185Z" transform="translate(90.43 0.747)"/><path class="a" d="M46.69,27.47a27.47,27.47,0,1,1,54.94,0,27.47,27.47,0,1,1-54.94,0Zm42.863,0c0-9.424-6.806-15.707-15.393-15.707S58.767,18.046,58.767,27.47,65.574,43.178,74.16,43.178,89.553,36.93,89.553,27.47Z" transform="translate(116.282 0)"/><path class="a" d="M118.325,24.992a1.7,1.7,0,0,1,1.885,1.885V52.043a1.7,1.7,0,0,1-1.885,1.885h-7.54a1.7,1.7,0,0,1-1.885-1.885V47.75c-3.56,4.747-9.04,7.225-16.091,7.225-14.73,0-25.969-11.938-25.969-27.47S78.359,0,94.31,0c12.007,0,22.2,7.4,25.306,17.069.454,1.291-.209,2.129-1.571,2.129h-8.9a2.325,2.325,0,0,1-2.2-1.361c-2.2-3.386-7.016-6.039-12.6-6.039-9.355,0-15.393,6.283-15.393,15.707,0,10.192,6.492,16.475,15.393,16.475,5.69,0,11.344-2.374,13.508-8.377H96.474a1.7,1.7,0,0,1-1.885-1.885V26.877a1.7,1.7,0,0,1,1.885-1.885Z" transform="translate(166.465)"/><path class="a" d="M83.75,27.47a27.47,27.47,0,0,1,54.941,0,27.47,27.47,0,0,1-54.941,0Zm42.863,0c0-9.424-6.806-15.707-15.393-15.707-8.622,0-15.393,6.283-15.393,15.707s6.806,15.707,15.393,15.707C119.842,43.178,126.613,36.93,126.613,27.47Z" transform="translate(208.58 0)"/><path class="a" d="M146.914,53.146h-9.285a2,2,0,0,1-2.129-1.571l-1.99-6.7H114.976l-1.99,6.7a1.976,1.976,0,0,1-2.129,1.571h-9.285c-1.361,0-2.024-.768-1.571-2.129L116.023,1.871A2.118,2.118,0,0,1,118.222.3H130.3a2.144,2.144,0,0,1,2.2,1.571l16.021,49.146C148.938,52.413,148.275,53.146,146.914,53.146ZM130.159,33.53l-5.9-20-5.9,20Z" transform="translate(248.7 0.747)"/><path class="a" d="M145.8,43.408v7.854a1.7,1.7,0,0,1-1.885,1.885H117.495a1.7,1.7,0,0,1-1.885-1.885V2.185A1.7,1.7,0,0,1,117.495.3H125.8a1.7,1.7,0,0,1,1.885,1.885V41.523h16.231A1.726,1.726,0,0,1,145.8,43.408Z" transform="translate(287.927 0.747)"/><path class="a" d="M125.473,39.243a1.688,1.688,0,0,1,1.885-1.955h8.307c1.117,0,1.745.593,1.955,1.815.593,2.723,2.862,4.084,7.33,4.084,4.922,0,6.492-1.885,6.492-4.084,0-3.107-3.77-4.468-8.377-6.039-7.47-2.583-16.894-5.655-16.894-17.208C126.171,5.281,134.793.01,143.764.01c8.831,0,17.278,4.747,18.186,15.707a1.688,1.688,0,0,1-1.885,1.955h-8.307c-1.117,0-1.745-.593-1.955-1.815-.593-2.792-2.583-4.084-6.039-4.084-3.77,0-5.515,1.885-5.515,4.084,0,3.176,3.107,4.677,7.47,6.283,7.539,2.653,17.8,5.375,17.8,17,0,10.576-8.447,15.847-18.57,15.847C135.037,54.951,126.381,50.169,125.473,39.243Z" transform="translate(312.48 0.025)"/></svg>