<svg xmlns="http://www.w3.org/2000/svg" width="474.35" height="52.165" viewBox="0 0 474.35 52.165"><defs><style>.a{fill:#fff;}.b{fill:#fdb940;}</style></defs><g transform="translate(0 -5.5)"><g transform="translate(0 5.5)"><g transform="translate(0 0.348)"><path class="a" d="M31.994,5.6H30.6V28.552H4.869V5.6H0V56.374H4.869V33.421H30.6V56.374h4.521V5.6h-3.13Z" transform="translate(0 -5.6)"/><path class="a" d="M43.294,5.6H41.555V39.681a12.788,12.788,0,0,1-21.909,9.042,12.628,12.628,0,0,1-3.825-9.042V5.6H11.3V39.681A17.074,17.074,0,0,0,16.516,52.2a17.074,17.074,0,0,0,12.519,5.216A17.074,17.074,0,0,0,41.555,52.2a17.074,17.074,0,0,0,5.216-12.519V5.6H43.294Z" transform="translate(27.997 -5.6)"/><path class="a" d="M66.466,5.6h-.7l-.7.7L46.643,49.418,28.212,6.3l-.348-.7H22.3V56.374h4.869V16.033l17.04,39.645.348.7H48.73l.348-.7L66.466,16.033V56.374h4.521V5.6H66.466Z" transform="translate(55.251 -5.6)"/><path class="a" d="M69.838,5.6H68.794l-.348.7L38.191,54.287,36.8,56.721h5.564l.348-.7,7.651-12.172H69.838v12.52h4.521V5.6H69.838Zm0,7.3V38.985H53.493Z" transform="translate(91.177 -5.6)"/><path class="a" d="M82.433,5.6H78.955V48.027L54.264,6.3l-.348-.7H48.7V56.374h4.521V14.294L78.26,55.678l.348.7h5.216V5.6Z" transform="translate(120.661 -5.6)"/></g><g transform="translate(269.865)"><path class="a" d="M109.594,5.6h-1.739V28.552H82.121V5.6H77.6V56.374h4.521V33.421h25.735V56.374h4.869V5.6h-3.13Z" transform="translate(-77.6 -5.252)"/><path class="a" d="M120.547,5.6h-1.391V39.681a11.378,11.378,0,0,1-3.825,9.042,12.628,12.628,0,0,1-9.042,3.825,11.378,11.378,0,0,1-9.042-3.825c-2.434-2.782-3.825-5.564-3.825-9.042V5.6H88.9V39.681A17.074,17.074,0,0,0,94.116,52.2a17.632,17.632,0,0,0,25.039,0,17.074,17.074,0,0,0,5.216-12.519V5.6h-3.825Z" transform="translate(-49.603 -5.252)"/><path class="a" d="M144.066,5.6h-1.043l-.348.7L124.243,49.418,105.812,6.3l-.7-.7H99.9V56.374h4.869V16.033l17.04,39.645.348.7h4.173l.348-.7,17.04-39.645V56.374h4.869V5.6h-4.521Z" transform="translate(-22.349 -5.252)"/><path class="a" d="M116.291,5.848H114.9V56.621h4.521V44.1H138.9l7.651,11.824.348.7h5.564l-1.391-2.434L120.812,6.2l-.348-.7h-.7l-3.478.348Zm19.823,33.385H119.769V13.151Z" transform="translate(14.816 -5.5)"/><path class="a" d="M159.685,5.6h-3.13V48.027L131.516,6.3l-.348-.7H126.3V56.374h4.521V14.294L155.86,55.678l.348.7h5.216V5.6Z" transform="translate(43.061 -5.252)"/></g><path class="b" d="M112.6,25.884a19.948,19.948,0,0,0-2.434,1.391,16.953,16.953,0,0,0-2.434,1.043,3.781,3.781,0,0,1-1.739.348h-1.739l.348-.7a23.9,23.9,0,0,0,2.087-4.521,3.81,3.81,0,0,0,0-2.782,2.715,2.715,0,0,0-1.391-1.391c-.348,0-1.043-.348-1.391-.348h-1.043a37.651,37.651,0,0,0-6.26,2.434,3.261,3.261,0,0,0-2.087,2.782c0,1.391,1.391,3.478,4.173,5.216l.348.348-.348.348c-.7,1.391-2.434,3.13-4.521,5.216s-4.521,3.478-6.608,5.216a2.94,2.94,0,0,1-2.087.7c-.348,0-.7,0-.7-.348-.348-.348-.348-1.043,1.043-3.13a12.137,12.137,0,0,0,2.087-3.13,14.949,14.949,0,0,1,3.13-3.478l2.782-2.782c-.7-1.739-1.391-3.13-2.434-3.13a1.278,1.278,0,0,0-1.043.348h0c-.7.7-1.739,1.391-2.782,2.434l-3.13,3.13L80.61,34.578h0c-.7.348-1.043.7-1.391.7a32.076,32.076,0,0,1-2.782,1.739A19.95,19.95,0,0,1,74,38.4a13.63,13.63,0,0,1-3.13,1.391,4.983,4.983,0,0,1-2.434.7h-.348c-1.043-.348-1.043-1.043-1.043-1.043,0-.348.348-.7,1.739-2.087,1.043-1.043,2.434-2.434,4.521-4.869,2.087-2.087,5.216-5.564,9.042-9.737l.348-.348h9.042a4.675,4.675,0,0,0,2.087-2.434c.348-1.043.348-1.391,0-1.391H86.174l1.043-1.043c3.825-3.825,5.912-6.608,6.26-6.955h0a4.3,4.3,0,0,0,.7-1.043,1.227,1.227,0,0,0,.348-1.391S94.173,7.8,92.782,7.8h-.348a10.721,10.721,0,0,0-3.478.348,1.214,1.214,0,0,0-.348.7c-.348.348-2.782,3.13-8.694,9.737l-.348.348H76.785c-2.782,0-3.825,0-4.173-.348h0s-.7,0-1.391,2.087c-.348,1.391-.348,1.739,0,1.739H74l1.739-.348-.7,1.043c-1.043,1.043-2.782,3.478-5.912,6.608-2.782,3.478-5.216,6.26-6.955,8.694-1.391,2.087-1.739,3.825-.348,5.216.348.7,1.043.7,2.087.7A4.411,4.411,0,0,0,66,43.967a30.667,30.667,0,0,0,6.955-3.13c1.391-1.043,4.869-2.782,7.651-4.869a.341.341,0,0,0-.348.348c-1.043,2.087-1.739,3.825-1.391,5.216a3.045,3.045,0,0,0,2.782,3.13H82.7A14.346,14.346,0,0,0,89.3,42.576a36.141,36.141,0,0,0,8.346-5.912,47.814,47.814,0,0,0,5.912-6.608l.348-.348h.348q3.652,0,5.216-1.043c1.391-.7,1.739-.7,1.739-1.043h0a7.586,7.586,0,0,0,1.739-1.391A4.8,4.8,0,0,1,114,24.84h0C113.648,25.536,112.952,25.536,112.6,25.884Zm-10.781,1.043h-.348a3.52,3.52,0,0,1-2.434-1.391l-.348-.348.348-.348a4.158,4.158,0,0,1,2.782-1.391,1.278,1.278,0,0,1,1.043.348h.348A6.249,6.249,0,0,1,101.824,26.927Z" transform="translate(151 0.199)"/></g></g></svg>